<svg width="16" height="16" viewBox="0 0 16 16" fill="none" xmlns="http://www.w3.org/2000/svg">
<path d="M8.00003 8.66675C9.1046 8.66675 10 7.77132 10 6.66675C10 5.56218 9.1046 4.66675 8.00003 4.66675C6.89546 4.66675 6.00003 5.56218 6.00003 6.66675C6.00003 7.77132 6.89546 8.66675 8.00003 8.66675Z" stroke="black" stroke-linecap="round" stroke-linejoin="round"/>
<path d="M8.00002 1.33337C6.58553 1.33337 5.22898 1.89528 4.22878 2.89547C3.22859 3.89567 2.66669 5.25222 2.66669 6.66671C2.66669 7.92804 2.93469 8.75337 3.66669 9.66671L8.00002 14.6667L12.3334 9.66671C13.0654 8.75337 13.3334 7.92804 13.3334 6.66671C13.3334 5.25222 12.7715 3.89567 11.7713 2.89547C10.7711 1.89528 9.41451 1.33337 8.00002 1.33337Z" stroke="black" stroke-linecap="round" stroke-linejoin="round"/>
</svg>
